<svg id="Layer_1" data-name="Layer 1" xmlns="http://www.w3.org/2000/svg" xmlns:xlink="http://www.w3.org/1999/xlink" viewBox="0 0 593.5 575"><defs><style>.cls-1{fill:none;}.cls-2{fill:#60bb44;}.cls-3{clip-path:url(#clip-path);}.cls-4{fill:#009edd;}.cls-5{fill:#953c94;}.cls-6{fill:#e03a3c;}.cls-7{fill:#f68320;}.cls-8{fill:#fdb827;}</style><clipPath id="clip-path" transform="translate(-7.5 -40.5)"><path class="cls-1" d="M119.5,203.5s51-50,153-15c0,0,45,27,90-1,0,0,58-29,112-2,0,0,37,13,61,48,0,0-79,41-60,125,0,0,5,74,78,103,0,0-61,172-156,153,0,0-53-22-65-22,0,0-25-5-43,1,0,0-47,22-80,22,0,0-53-13-93-76,0,0-65-90-59-214C57.5,325.5,64.5,256.5,119.5,203.5Z"/></clipPath></defs><title>apple_logo</title><path class="cls-2" d="M305.5,182.5s-12-125,120-142C425.5,40.5,437.5,167.5,305.5,182.5Z" transform="translate(-7.5 -40.5)"/><g class="cls-3"><rect class="cls-4" y="499" width="590.41" height="76"/><rect class="cls-5" x="0.62" y="423.5" width="590.41" height="76"/><rect class="cls-6" x="1.24" y="348" width="590.41" height="76"/><rect class="cls-7" x="1.85" y="272.5" width="590.41" height="76"/><rect class="cls-8" x="2.47" y="197" width="590.41" height="76"/><rect class="cls-2" x="3.09" y="121.5" width="590.41" height="76"/></g></svg>